<?xml version="1.0" encoding="UTF-8"?>
<svg width="478px" height="478px" viewBox="0 0 478 478" version="1.1" xmlns="http://www.w3.org/2000/svg" xmlns:xlink="http://www.w3.org/1999/xlink">
    <title>LOGO_RT_vector</title>
    <defs>
        <path d="M486.2,256 C486.2,383.135949 383.135949,486.2 256,486.2 C128.864051,486.2 25.8,383.135949 25.8,256 C25.8,128.864051 128.864051,25.8 256,25.8 C383.135949,25.8 486.2,128.864051 486.2,256 Z" id="path-1"></path>
        <circle id="path-2" cx="256" cy="256" r="230.2"></circle>
        <filter x="-3.0%" y="-2.2%" width="106.1%" height="106.1%" filterUnits="objectBoundingBox" id="filter-3">
            <feOffset dx="0" dy="4" in="SourceAlpha" result="shadowOffsetOuter1"></feOffset>
            <feGaussianBlur stdDeviation="4" in="shadowOffsetOuter1" result="shadowBlurOuter1"></feGaussianBlur>
            <feColorMatrix values="0 0 0 0 0   0 0 0 0 0   0 0 0 0 0  0 0 0 0.25 0" type="matrix" in="shadowBlurOuter1"></feColorMatrix>
        </filter>
    </defs>
    <g id="LOGO_RT_vector" stroke="none" fill="none" transform="translate(-17, -21)" xlink:href="#path-1" fill-rule="evenodd" stroke-width="1">
        <g id="Capa_1">
            <g id="Óvalo">
                <use fill="black" fill-opacity="1" filter="url(#filter-3)" xlink:href="#path-2"></use>
                <use fill="#FFFFFF" fill-rule="evenodd" xlink:href="#path-2"></use>
            </g>
            <g id="Grupo" fill="#000000">
                <path d="M366.1,186.5 L365.8,167 C365.8,162.8 362.3,159 357.9,159 L314.8,159 L314.8,410.7 L234.1,410.7 L223.2,409.7 C212.9,408.2 204.5,402.5 199.9,392.8 L160.8,311.3 C156.9,303.2 150.2,299.8 141.3,299.3 L115.1,299 L115.1,252.1 L154.8,251.5 C170.9,251.3 183.9,240.6 188.6,225.5 C192.7,211.3 192.8,196.8 188,182.8 C182.8,169 170.7,159.3 155.7,159.1 L115.1,158.7 L115.1,111.9 L159,111.9 C168.8,111.9 178.1,113.6 187.4,116.1 C210.5,123.2 228.7,139.3 237.6,162.1 C254.1,204.2 243.7,262.1 198.5,281 C203.6,284.9 208.6,289.1 211.5,295.1 L239.4,354 C241.6,358.6 245.6,362.6 250.8,362.8 L262.9,363.3 L262.9,112.3 L391.4,112.3 C398.7,112.3 404.7,116 408.6,121.5 C410.2,126.2 411.7,131.4 411.7,136.4 L411.9,186.4 C396.7,187 382.4,186.9 366.1,186.5 Z" id="Trazado"></path>
            </g>
        </g>
    </g>
</svg>